<?xml version="1.0" encoding="UTF-8"?>
<svg id="Laag_1" data-name="Laag 1" xmlns="http://www.w3.org/2000/svg" viewBox="0 0 1000 246.54">
  <defs>
    <style>
      .cls-1 {
        fill: #f93b3b;
      }
    </style>
  </defs>
  <g>
    <path class="cls-1" d="M299.63,186.19c-7.91,0-15.53-1.31-22.86-3.93-7.33-2.62-13.88-6.52-19.65-11.7-5.77-5.18-10.35-11.64-13.72-19.38-3.37-7.74-5.06-16.79-5.06-27.15s1.69-19.23,5.06-26.97c3.37-7.74,7.98-14.2,13.81-19.38,5.84-5.18,12.42-9.11,19.75-11.79,7.33-2.68,14.89-4.02,22.67-4.02s15.53,1.28,22.86,3.84c7.33,2.56,13.88,6.43,19.65,11.61,5.77,5.18,10.34,11.67,13.72,19.47,3.37,7.8,5.06,16.88,5.06,27.24s-1.69,19.09-5.06,26.88c-3.38,7.8-7.95,14.29-13.72,19.47-5.77,5.18-12.32,9.11-19.65,11.79-7.33,2.68-14.95,4.02-22.86,4.02ZM299.63,182.44c7.13,0,12.91-1.76,17.32-5.27,4.41-3.51,7.62-9.53,9.63-18.04,2.01-8.51,3.01-20.21,3.01-35.1s-1.01-26.77-3.01-35.28c-2.01-8.51-5.22-14.53-9.63-18.04-4.41-3.51-10.19-5.27-17.32-5.27s-12.71,1.76-17.12,5.27c-4.41,3.51-7.62,9.53-9.63,18.04-2.01,8.51-3.02,20.28-3.02,35.28s1,26.59,3.02,35.1c2.01,8.51,5.22,14.53,9.63,18.04,4.41,3.51,10.12,5.27,17.12,5.27Z"/>
    <path class="cls-1" d="M375.52,182.98v-1.79l4.09-1.43c4.15-1.54,6.23-4.58,6.23-9.11v-93.25c0-4.76-2.08-7.8-6.23-9.11l-4.09-1.43v-1.79h51.37c13.75,0,25.59,2.35,35.51,7.06,9.92,4.7,17.58,11.43,22.96,20.18,5.38,8.75,8.08,19.27,8.08,31.53s-2.92,23.16-8.76,31.98c-5.84,8.81-13.98,15.54-24.42,20.18-10.44,4.65-22.73,6.97-36.87,6.97h-47.86ZM415.02,179.4h8.37c9.34,0,16.86-1.7,22.57-5.09,5.71-3.39,9.89-9.11,12.55-17.15,2.66-8.04,3.99-19.08,3.99-33.13s-1.33-25.1-3.99-33.14c-2.66-8.04-6.78-13.75-12.36-17.15-5.58-3.4-12.91-5.09-21.99-5.09h-9.15v110.75Z"/>
    <path class="cls-1" d="M506.66,182.98v-1.79l3.89-1.43c2.59-.83,4.31-1.96,5.16-3.39.84-1.43,1.26-3.33,1.26-5.72v-93.25c0-2.38-.39-4.29-1.17-5.71s-2.53-2.56-5.25-3.4l-3.89-1.43v-1.79h50v1.79l-3.89,1.43c-2.6.84-4.31,1.97-5.16,3.4-.85,1.43-1.26,3.33-1.26,5.71v93.25c0,2.39.42,4.26,1.26,5.63.84,1.37,2.56,2.53,5.16,3.48l3.89,1.43v1.79h-50Z"/>
    <path class="cls-1" d="M602.78,182.98v-1.79l5.84-1.43c4.54-1.19,6.81-4.17,6.81-8.93v-33.94l-32.1-60.02c-1.17-2.38-2.24-4.17-3.21-5.36-.97-1.19-2.43-2.2-4.38-3.04l-3.5-1.61v-1.79h52.14v1.79l-3.5,1.25c-2.85,1.07-4.41,2.53-4.67,4.38-.26,1.85.26,4.14,1.56,6.88l22.96,46.8,25.68-48.59c1.04-1.9,1.46-3.87,1.26-5.89-.19-2.03-1.59-3.33-4.18-3.93l-2.72-.89v-1.79h23.35v1.79l-3.7,1.25c-2.47.83-4.28,2-5.45,3.48-1.17,1.49-2.33,3.37-3.5,5.63l-26.66,51.45v42.16c0,2.38.49,4.32,1.46,5.81.97,1.49,2.69,2.53,5.16,3.13l6.03,1.43v1.79h-54.67Z"/>
    <path class="cls-1" d="M751.82,186.19c-7.91,0-15.53-1.31-22.86-3.93-7.33-2.62-13.88-6.52-19.65-11.7-5.77-5.18-10.35-11.64-13.72-19.38-3.37-7.74-5.06-16.79-5.06-27.15s1.69-19.23,5.06-26.97c3.37-7.74,7.98-14.2,13.81-19.38,5.84-5.18,12.42-9.11,19.75-11.79,7.33-2.68,14.89-4.02,22.67-4.02s15.53,1.28,22.86,3.84c7.33,2.56,13.88,6.43,19.65,11.61,5.77,5.18,10.34,11.67,13.72,19.47,3.37,7.8,5.06,16.88,5.06,27.24s-1.69,19.09-5.06,26.88c-3.38,7.8-7.95,14.29-13.72,19.47-5.77,5.18-12.32,9.11-19.65,11.79-7.33,2.68-14.95,4.02-22.86,4.02ZM751.82,182.44c7.13,0,12.91-1.76,17.32-5.27,4.41-3.51,7.62-9.53,9.63-18.04,2.01-8.51,3.01-20.21,3.01-35.1s-1-26.77-3.01-35.28c-2.01-8.51-5.22-14.53-9.63-18.04-4.41-3.51-10.19-5.27-17.32-5.27s-12.71,1.76-17.12,5.27c-4.41,3.51-7.62,9.53-9.63,18.04-2.01,8.51-3.02,20.28-3.02,35.28s1,26.59,3.02,35.1c2.01,8.51,5.22,14.53,9.63,18.04,4.41,3.51,10.12,5.27,17.12,5.27Z"/>
    <path class="cls-1" d="M895.02,186.19c-7.91,0-15.53-1.31-22.86-3.93-7.33-2.62-13.88-6.52-19.65-11.7s-10.35-11.64-13.72-19.38c-3.38-7.74-5.06-16.79-5.06-27.15s1.69-19.23,5.06-26.97c3.37-7.74,7.98-14.2,13.81-19.38,5.84-5.18,12.42-9.11,19.75-11.79,7.33-2.68,14.89-4.02,22.67-4.02s15.53,1.28,22.86,3.84c7.33,2.56,13.88,6.43,19.65,11.61,5.77,5.18,10.34,11.67,13.72,19.47,3.37,7.8,5.06,16.88,5.06,27.24s-1.69,19.09-5.06,26.88c-3.38,7.8-7.95,14.29-13.72,19.47-5.77,5.18-12.32,9.11-19.65,11.79-7.33,2.68-14.95,4.02-22.86,4.02ZM895.02,182.44c7.13,0,12.91-1.76,17.32-5.27,4.41-3.51,7.62-9.53,9.63-18.04,2.01-8.51,3.01-20.21,3.01-35.1s-1.01-26.77-3.01-35.28c-2.01-8.51-5.22-14.53-9.63-18.04-4.41-3.51-10.19-5.27-17.32-5.27s-12.71,1.76-17.12,5.27c-4.41,3.51-7.62,9.53-9.63,18.04-2.01,8.51-3.01,20.28-3.01,35.28s1,26.59,3.01,35.1c2.01,8.51,5.22,14.53,9.63,18.04,4.41,3.51,10.12,5.27,17.12,5.27Z"/>
  </g>
  <g>
    <polygon class="cls-1" points="117.12 91.39 189.14 162.69 189.14 212.36 117.12 212.36 117.12 91.39"/>
    <polygon class="cls-1" points="117.12 35.69 117.12 91.39 43.69 164.82 43.69 35.69 117.12 35.69"/>
  </g>
</svg>